{
	"asset":{
		"generator":"Khronos glTF Blender I/O v3.6.27",
		"version":"2.0"
	},
	"scene":0,
	"scenes":[
		{
			"name":"Scene",
			"nodes":[
				0
			]
		}
	],
	"nodes":[
		{
			"mesh":0,
			"name":"Cube"
		}
	],
	"materials":[
		{
			"doubleSided":true,
			"name":"Material",
			"pbrMetallicRoughness":{
				"baseColorFactor":[
					0.800000011920929,
					0.800000011920929,
					0.800000011920929,
					1
				],
				"metallicFactor":0,
				"roughnessFactor":0.5
			}
		}
	],
	"meshes":[
		{
			"name":"Cube",
			"primitives":[
				{
					"attributes":{
						"POSITION":0,
						"NORMAL":1,
						"TEXCOORD_0":2
					},
					"indices":3,
					"material":0
				}
			]
		}
	],
	"accessors":[
		{
			"bufferView":0,
			"componentType":5126,
			"count":518,
			"max":[
				6.230193138122559,
				2.6268248558044434,
				5.711419105529785
			],
			"min":[
				-6.230193138122559,
				-2.6268248558044434,
				-2.7952003479003906
			],
			"type":"VEC3"
		},
		{
			"bufferView":1,
			"componentType":5126,
			"count":518,
			"type":"VEC3"
		},
		{
			"bufferView":2,
			"componentType":5126,
			"count":518,
			"type":"VEC2"
		},
		{
			"bufferView":3,
			"componentType":5123,
			"count":882,
			"type":"SCALAR"
		}
	],
	"bufferViews":[
		{
			"buffer":0,
			"byteLength":6216,
			"byteOffset":0,
			"target":34962
		},
		{
			"buffer":0,
			"byteLength":6216,
			"byteOffset":6216,
			"target":34962
		},
		{
			"buffer":0,
			"byteLength":4144,
			"byteOffset":12432,
			"target":34962
		},
		{
			"buffer":0,
			"byteLength":1764,
			"byteOffset":16576,
			"target":34963
		}
	],
	"buffers":[
		{
			"byteLength":18340,
			"uri":"data:application/octet-stream;base64,"
		}
	]
}
